<?xml version="1.0"?>
<svg xmlns="http://www.w3.org/2000/svg" xmlns:xlink="http://www.w3.org/1999/xlink" version="1.1" id="Capa_1" x="0px" y="0px" viewBox="0 0 512 512" style="enable-background:new 0 0 512 512;" xml:space="preserve" width="512px" height="512px"><g><g>
	<g>
		<circle cx="95.991" cy="64" r="64" data-original="#000000" class="active-path" data-old_color="#2bc3b3" fill="#2bc3b3"/>
	</g>
</g><g>
	<g>
		<path d="M191.927,334.4l-14.592-145.568C175.704,172.384,162.007,160,145.496,160H46.487c-16.512,0-30.208,12.384-31.84,28.8    L0.087,334.4c-0.448,4.512,1.024,8.96,4.064,12.352C7.16,350.08,11.479,352,15.991,352h17.504l13.12,131.2    c1.632,16.384,15.36,28.8,31.872,28.8h35.04c16.512,0,30.208-12.416,31.84-28.8l13.12-131.2h17.504    c4.512,0,8.832-1.92,11.872-5.248C190.903,343.392,192.375,338.912,191.927,334.4z" data-original="#000000" class="active-path" data-old_color="#2bc3b3" fill="#2bc3b3"/>
	</g>
</g><g>
	<g>
		<path d="M386.264,272c7.168,27.52,32,48,61.728,48c35.296,0,64-28.704,64-64c0-35.296-28.704-64-64-64    c-29.728,0-54.56,20.448-61.728,48h-66.272V80h66.272c7.168,27.52,32,48,61.728,48c35.296,0,64-28.704,64-64s-28.704-64-64-64    c-29.728,0-54.56,20.48-61.728,48h-82.272c-8.832,0-16,7.168-16,16v176h-48c-8.832,0-16,7.136-16,16s7.168,16,16,16h48v176    c0,8.832,7.168,16,16,16h82.272c7.168,27.52,32,48,61.728,48c35.296,0,64-28.704,64-64c0-35.296-28.704-64-64-64    c-29.728,0-54.56,20.48-61.728,48h-66.272V272H386.264z" data-original="#000000" class="active-path" data-old_color="#2bc3b3" fill="#2bc3b3"/>
	</g>
</g></g> </svg>
